# xmcd CD database file
#
# Track frame offsets:
#	150
#	21548
#	36879
#	52881
#	74563
#	92571
#	110293
#	128323
#	151080
#	168777
#	184455
#	202382
#	222852
#	239381
#	260212
#	279721
#	298715
#	315768
#	335686
#
# Disc length: 4785 seconds
#
# Revision: 1
# Processed by: cddbd v1.5.2PL0 Copyright (c) Steve Scherf et al.
# Submitted via: CDex 1.51
#
DISCID=1d12af13
DTITLE=Various Artist - ZMPB-CD-2
DYEAR=1900
DGENRE=Blues
TTITLE0=Lady Gaga - Bad Romance
TTITLE1=Train - Drive By
TTITLE2=Ed Sheeran - Drunk
TTITLE3=Jay - Z feat. Alicia Keys - Empire State Of Mind [Duet] 
TTITLE4=JLS - Eyes Wide Shut
TTITLE5=Cheryl Cole - Fight For This Love
TTITLE6=Katy Perry - Firework
TTITLE7=Coldplay - Fix You
TTITLE8=Cee Lo Green - Forget You
TTITLE9=The Wanted - Glad You Came
TTITLE10=Bruno Mars - Grenade
TTITLE11=Beyounce - Halo
TTITLE12=Olly Murs Ft Rizzle Kicks - Heart Skips A beat (with rapper)
TTITLE13=Enrique Iglesias - Hero
TTITLE14=The Black Eyed Peas - I Gotta Feelin'
TTITLE15=Aloe Blacc - I Need A Dollar
TTITLE16=The Backstreet Boys - I Want It That Way
TTITLE17=Beyonce - If I Were A Boy
TTITLE18=The Fugees - Killing Me Softly
EXTD=
EXTT0=
EXTT1=
EXTT2=
EXTT3=
EXTT4=
EXTT5=
EXTT6=
EXTT7=
EXTT8=
EXTT9=
EXTT10=
EXTT11=
EXTT12=
EXTT13=
EXTT14=
EXTT15=
EXTT16=
EXTT17=
EXTT18=
PLAYORDER=
